<svg xmlns="http://www.w3.org/2000/svg" viewBox="0 0 760 520" role="img" aria-label="Neon brain">
  <defs>
    <linearGradient id="leftBrain" x1="0" x2="1">
      <stop offset="0" stop-color="#ff37ff"/>
      <stop offset="1" stop-color="#8d32ff"/>
    </linearGradient>
    <linearGradient id="rightBrain" x1="0" x2="1">
      <stop offset="0" stop-color="#00c8ff"/>
      <stop offset="1" stop-color="#0082ff"/>
    </linearGradient>
    <filter id="neon">
      <feGaussianBlur stdDeviation="6" result="blur"/>
      <feMerge><feMergeNode in="blur"/><feMergeNode in="SourceGraphic"/></feMerge>
    </filter>
  </defs>
  <g opacity="0.55" filter="url(#neon)">
    <path d="M380 250 80 80M380 260 40 270M380 280 120 440" stroke="#922cff" stroke-width="4"/>
    <path d="M380 250 680 80M380 260 720 270M380 280 640 440" stroke="#00c8ff" stroke-width="4"/>
  </g>
  <g filter="url(#neon)" fill="rgba(80,20,130,0.18)" stroke="url(#leftBrain)" stroke-width="5" stroke-linecap="round" stroke-linejoin="round">
    <path d="M349 105c-25-36-91-30-106 13-43-6-78 31-70 73-33 22-38 76-8 103-14 47 25 93 72 88 18 42 88 42 111-4z"/>
    <path d="M250 140c-29 10-44 33-40 61M205 249c33-8 61 4 78 30M265 189c35 2 59 20 69 52M241 329c26-6 51 2 68 25M313 122c15 22 16 47 4 75"/>
  </g>
  <g filter="url(#neon)" fill="rgba(0,110,190,0.14)" stroke="url(#rightBrain)" stroke-width="5" stroke-linecap="round" stroke-linejoin="round">
    <path d="M411 105c25-36 91-30 106 13 43-6 78 31 70 73 33 22 38 76 8 103 14 47-25 93-72 88-18 42-88 42-111-4z"/>
    <path d="M510 140c29 10 44 33 40 61M555 249c-33-8-61 4-78 30M495 189c-35 2-59 20-69 52M519 329c-26-6-51 2-68 25M447 122c-15 22-16 47-4 75"/>
  </g>
  <path d="M405 102 330 260h70l-45 160 118-202h-74z" fill="#fff" stroke="#a855ff" stroke-width="5" filter="url(#neon)"/>
</svg>
