<svg xmlns="http://www.w3.org/2000/svg" viewBox="0 0 1800 950" preserveAspectRatio="xMidYMid slice">
  <defs>
    <radialGradient id="core" cx="66%" cy="34%" r="45%">
      <stop offset="0" stop-color="#4b1cff" stop-opacity="0.55"/>
      <stop offset="0.28" stop-color="#111b84" stop-opacity="0.22"/>
      <stop offset="1" stop-color="#040612" stop-opacity="0"/>
    </radialGradient>
    <linearGradient id="field" x1="0" x2="1" y1="0" y2="1">
      <stop offset="0" stop-color="#030310"/>
      <stop offset="0.48" stop-color="#06091d"/>
      <stop offset="1" stop-color="#020411"/>
    </linearGradient>
    <filter id="glow">
      <feGaussianBlur stdDeviation="5" result="blur"/>
      <feMerge>
        <feMergeNode in="blur"/>
        <feMergeNode in="SourceGraphic"/>
      </feMerge>
    </filter>
  </defs>
  <rect width="1800" height="950" fill="url(#field)"/>
  <rect width="1800" height="950" fill="url(#core)"/>
  <g opacity="0.62" filter="url(#glow)">
    <path d="M940 310 1260 120" stroke="#7b2cff" stroke-width="5" stroke-linecap="round"/>
    <path d="M910 370 1380 270" stroke="#00c8ff" stroke-width="4" stroke-linecap="round"/>
    <path d="M930 420 1480 460" stroke="#8f2cff" stroke-width="3" stroke-linecap="round"/>
    <path d="M880 280 1090 70" stroke="#175dff" stroke-width="6" stroke-linecap="round"/>
    <path d="M930 520 1330 770" stroke="#00d9ff" stroke-width="4" stroke-linecap="round"/>
    <path d="M850 470 1180 600" stroke="#9a25ff" stroke-width="5" stroke-linecap="round"/>
    <path d="M760 310 520 120" stroke="#7b2cff" stroke-width="3" stroke-linecap="round"/>
    <path d="M720 450 260 510" stroke="#00c8ff" stroke-width="3" stroke-linecap="round"/>
  </g>
  <g opacity="0.28">
    <circle cx="210" cy="160" r="1.8" fill="#00d9ff"/>
    <circle cx="390" cy="250" r="1.8" fill="#8f2cff"/>
    <circle cx="620" cy="100" r="2.2" fill="#175dff"/>
    <circle cx="1460" cy="190" r="2.4" fill="#00d9ff"/>
    <circle cx="1540" cy="680" r="2" fill="#8f2cff"/>
    <circle cx="300" cy="760" r="1.8" fill="#00d9ff"/>
  </g>
</svg>
